<svg width="257" height="50" viewBox="0 0 257 50" fill="none" xmlns="http://www.w3.org/2000/svg">
<mask id="path-1-inside-1_59_28467" fill="white">
<path d="M0 9.5H74V40.5H0V9.5Z"/>
</mask>
<path d="M73.4 9.5V40.5H74.6V9.5H73.4Z" fill="#CFD7DE" mask="url(#path-1-inside-1_59_28467)"/>
<path d="M36.3551 24.5C35.5057 24.5 34.8944 24.3273 34.5211 23.982C34.1571 23.6273 33.9751 23.0813 33.9751 22.344V22.176H33.9051C33.7651 22.6987 33.5457 23.0767 33.2471 23.31C32.9484 23.534 32.5564 23.646 32.0711 23.646C31.4271 23.646 30.9324 23.4733 30.5871 23.128C30.2417 22.7827 30.0691 22.2973 30.0691 21.672C30.0691 21.3547 30.1157 21.0653 30.2091 20.804C30.3024 20.5333 30.4471 20.2813 30.6431 20.048C30.8391 19.8147 31.0817 19.5953 31.3711 19.39C31.6697 19.1753 32.0197 18.9607 32.4211 18.746L33.9051 17.962V17.22H35.1791V22.036C35.1791 22.372 35.2631 22.6053 35.4311 22.736C35.5991 22.8573 35.8651 22.918 36.2291 22.918H36.6911V24.164L36.3551 24.5ZM32.3791 22.064C32.9391 22.064 33.3311 21.994 33.5551 21.854C33.7884 21.714 33.9051 21.4667 33.9051 21.112V19.222L32.6451 19.866C32.1411 20.1273 31.7771 20.3607 31.5531 20.566C31.3291 20.762 31.2171 21.0047 31.2171 21.294C31.2171 21.5647 31.3011 21.7607 31.4691 21.882C31.6464 22.0033 31.9497 22.064 32.3791 22.064ZM34.4651 16.086C34.2504 16.086 34.0777 16.0207 33.9471 15.89C33.8257 15.7593 33.7651 15.5587 33.7651 15.288C33.7651 15.008 33.8257 14.8073 33.9471 14.686C34.0777 14.5553 34.2504 14.49 34.4651 14.49H34.6751C34.8897 14.49 35.0624 14.5553 35.1931 14.686C35.3237 14.8073 35.3891 15.008 35.3891 15.288C35.3891 15.5587 35.3237 15.7593 35.1931 15.89C35.0624 16.0207 34.8897 16.086 34.6751 16.086H34.4651ZM32.4911 16.086C32.2764 16.086 32.1037 16.0207 31.9731 15.89C31.8517 15.7593 31.7911 15.5587 31.7911 15.288C31.7911 15.008 31.8517 14.8073 31.9731 14.686C32.1037 14.5553 32.2764 14.49 32.4911 14.49H32.7011C32.9157 14.49 33.0884 14.5553 33.2191 14.686C33.3497 14.8073 33.4151 15.008 33.4151 15.288C33.4151 15.5587 33.3497 15.7593 33.2191 15.89C33.0884 16.0207 32.9157 16.086 32.7011 16.086H32.4911ZM36.3554 23.254L36.6914 22.918H36.9854C37.6201 22.918 38.0681 22.848 38.3294 22.708C38.5907 22.5587 38.7214 22.2927 38.7214 21.91C38.7214 21.7513 38.7074 21.5507 38.6794 21.308C38.6607 21.0653 38.6187 20.7433 38.5534 20.342L38.3294 19.124L39.5474 18.928L39.7294 20.146C39.8414 20.8927 39.8974 21.4807 39.8974 21.91C39.8974 22.7873 39.6594 23.4407 39.1834 23.87C38.7074 24.29 37.9747 24.5 36.9854 24.5H36.3554V23.254ZM38.6094 27.398C38.3947 27.398 38.2221 27.3327 38.0914 27.202C37.9701 27.0713 37.9094 26.8707 37.9094 26.6C37.9094 26.32 37.9701 26.1147 38.0914 25.984C38.2221 25.8627 38.3947 25.802 38.6094 25.802H38.8194C39.0341 25.802 39.2067 25.8627 39.3374 25.984C39.4681 26.1147 39.5334 26.32 39.5334 26.6C39.5334 26.8707 39.4681 27.0713 39.3374 27.202C39.2067 27.3327 39.0341 27.398 38.8194 27.398H38.6094ZM41.4035 14.14H42.7055V24.5H41.4035V14.14ZM44.1257 26.278H44.9377C45.9177 26.278 46.6831 26.1193 47.2337 25.802C47.7844 25.494 48.1484 25.06 48.3257 24.5H46.6457C45.8897 24.5 45.3017 24.2947 44.8817 23.884C44.4711 23.4733 44.2657 22.89 44.2657 22.134C44.2657 21.686 44.3311 21.266 44.4617 20.874C44.6017 20.482 44.7884 20.146 45.0217 19.866C45.2644 19.5767 45.5491 19.348 45.8757 19.18C46.2024 19.012 46.5617 18.928 46.9537 18.928C47.7751 18.928 48.4144 19.278 48.8717 19.978C49.3384 20.678 49.5811 21.658 49.5997 22.918H50.2577V24.164L49.9217 24.5H49.4457C49.2124 25.5733 48.7224 26.3993 47.9757 26.978C47.2384 27.566 46.2444 27.86 44.9937 27.86H44.1257V26.278ZM45.4277 21.938C45.4277 22.2833 45.5351 22.5353 45.7497 22.694C45.9644 22.8433 46.2817 22.918 46.7017 22.918H48.4377V22.652C48.4377 22.008 48.2884 21.4947 47.9897 21.112C47.6911 20.72 47.3037 20.524 46.8277 20.524C46.3984 20.524 46.0577 20.6547 45.8057 20.916C45.5537 21.1773 45.4277 21.518 45.4277 21.938ZM49.9179 23.254L50.2539 22.918H50.5479C51.1826 22.918 51.6306 22.848 51.8919 22.708C52.1532 22.5587 52.2839 22.2927 52.2839 21.91C52.2839 21.7513 52.2699 21.5507 52.2419 21.308C52.2232 21.0653 52.1812 20.7433 52.1159 20.342L51.8919 19.124L53.1099 18.928L53.2919 20.146C53.4039 20.8927 53.4599 21.4807 53.4599 21.91C53.4599 22.7873 53.2219 23.4407 52.7459 23.87C52.2699 24.29 51.5372 24.5 50.5479 24.5H49.9179V23.254ZM52.1719 27.398C51.9572 27.398 51.7846 27.3327 51.6539 27.202C51.5326 27.0713 51.4719 26.8707 51.4719 26.6C51.4719 26.32 51.5326 26.1147 51.6539 25.984C51.7846 25.8627 51.9572 25.802 52.1719 25.802H52.3819C52.5966 25.802 52.7692 25.8627 52.8999 25.984C53.0306 26.1147 53.0959 26.32 53.0959 26.6C53.0959 26.8707 53.0306 27.0713 52.8999 27.202C52.7692 27.3327 52.5966 27.398 52.3819 27.398H52.1719ZM7.91069 41.86C6.60402 41.86 5.59602 41.5427 4.88669 40.908C4.18669 40.2733 3.83669 39.3773 3.83669 38.22C3.83669 37.8 3.89269 37.338 4.00469 36.834C4.12602 36.33 4.28935 35.8353 4.49469 35.35L5.55869 35.672C5.38135 36.0547 5.23669 36.4467 5.12469 36.848C5.01269 37.2493 4.95669 37.6133 4.95669 37.94C4.95669 38.6493 5.17602 39.1953 5.61469 39.578C6.05335 39.97 6.66002 40.166 7.43469 40.166H8.40069C9.30602 40.166 9.96869 39.9747 10.3887 39.592C10.818 39.2187 11.0327 38.6213 11.0327 37.8C11.0327 37.5387 11.0094 37.24 10.9627 36.904C10.916 36.5587 10.846 36.162 10.7527 35.714L10.4867 34.496L11.7047 34.258L11.9287 35.462C11.9754 35.742 12.0174 36.0033 12.0547 36.246C12.1014 36.4793 12.134 36.7033 12.1527 36.918H13.4687V38.164L13.1327 38.5H12.1667C12.064 39.648 11.6674 40.4927 10.9767 41.034C10.286 41.5847 9.26402 41.86 7.91069 41.86ZM7.96669 34.23C7.75202 34.23 7.57935 34.1647 7.44869 34.034C7.32735 33.9033 7.26669 33.7027 7.26669 33.432C7.26669 33.152 7.32735 32.9513 7.44869 32.83C7.57935 32.6993 7.75202 32.634 7.96669 32.634H8.17669C8.39135 32.634 8.56402 32.6993 8.69469 32.83C8.82535 32.9513 8.89069 33.152 8.89069 33.432C8.89069 33.7027 8.82535 33.9033 8.69469 34.034C8.56402 34.1647 8.39135 34.23 8.17669 34.23H7.96669ZM13.1269 37.254L13.4629 36.918H13.7569C14.3916 36.918 14.8396 36.848 15.1009 36.708C15.3622 36.5587 15.4929 36.2927 15.4929 35.91C15.4929 35.7513 15.4789 35.5507 15.4509 35.308C15.4322 35.0653 15.3902 34.7433 15.3249 34.342L15.1009 33.124L16.3189 32.928L16.5009 34.146C16.6129 34.8927 16.6689 35.4807 16.6689 35.91C16.6689 36.7873 16.4309 37.4407 15.9549 37.87C15.4789 38.29 14.7462 38.5 13.7569 38.5H13.1269V37.254ZM16.3749 41.398C16.1602 41.398 15.9876 41.3327 15.8569 41.202C15.7356 41.0713 15.6749 40.8707 15.6749 40.6C15.6749 40.32 15.7356 40.1147 15.8569 39.984C15.9876 39.8627 16.1602 39.802 16.3749 39.802H16.5849C16.7996 39.802 16.9722 39.8627 17.1029 39.984C17.2336 40.1147 17.2989 40.32 17.2989 40.6C17.2989 40.8707 17.2336 41.0713 17.1029 41.202C16.9722 41.3327 16.7996 41.398 16.5849 41.398H16.3749ZM14.4009 41.398C14.1862 41.398 14.0136 41.3327 13.8829 41.202C13.7616 41.0713 13.7009 40.8707 13.7009 40.6C13.7009 40.32 13.7616 40.1147 13.8829 39.984C14.0136 39.8627 14.1862 39.802 14.4009 39.802H14.6109C14.8256 39.802 14.9982 39.8627 15.1289 39.984C15.2596 40.1147 15.3249 40.32 15.3249 40.6C15.3249 40.8707 15.2596 41.0713 15.1289 41.202C14.9982 41.3327 14.8256 41.398 14.6109 41.398H14.4009ZM17.8045 40.278H18.3365C18.8125 40.278 19.2092 40.2173 19.5265 40.096C19.8439 39.9747 20.1005 39.802 20.2965 39.578C20.4925 39.3633 20.6325 39.102 20.7165 38.794C20.8005 38.486 20.8425 38.1407 20.8425 37.758C20.8425 37.506 20.8285 37.2447 20.8005 36.974C20.7725 36.7033 20.7352 36.4327 20.6885 36.162L20.3945 34.468L21.5985 34.244L21.7945 35.42C21.9532 36.3253 22.0325 37.1 22.0325 37.744C22.0325 38.3227 21.9625 38.8593 21.8225 39.354C21.6919 39.858 21.4772 40.2967 21.1785 40.67C20.8799 41.0433 20.4972 41.3327 20.0305 41.538C19.5639 41.7527 19.0039 41.86 18.3505 41.86H17.8045V40.278ZM23.0164 40.278H23.8284C24.8084 40.278 25.5737 40.1193 26.1244 39.802C26.675 39.494 27.039 39.06 27.2164 38.5H25.5364C24.7804 38.5 24.1924 38.2947 23.7724 37.884C23.3617 37.4733 23.1564 36.89 23.1564 36.134C23.1564 35.686 23.2217 35.266 23.3524 34.874C23.4924 34.482 23.679 34.146 23.9124 33.866C24.155 33.5767 24.4397 33.348 24.7664 33.18C25.093 33.012 25.4524 32.928 25.8444 32.928C26.6657 32.928 27.305 33.278 27.7624 33.978C28.229 34.678 28.4717 35.658 28.4904 36.918H29.1484V38.164L28.8124 38.5H28.3364C28.103 39.5733 27.613 40.3993 26.8664 40.978C26.129 41.566 25.135 41.86 23.8844 41.86H23.0164V40.278ZM24.3184 35.938C24.3184 36.2833 24.4257 36.5353 24.6404 36.694C24.855 36.8433 25.1724 36.918 25.5924 36.918H27.3284V36.652C27.3284 36.008 27.179 35.4947 26.8804 35.112C26.5817 34.72 26.1944 34.524 25.7184 34.524C25.289 34.524 24.9484 34.6547 24.6964 34.916C24.4444 35.1773 24.3184 35.518 24.3184 35.938ZM38.7065 38.5C38.3519 38.5 38.0439 38.4673 37.7825 38.402C37.5212 38.3273 37.2785 38.1967 37.0545 38.01C36.5225 38.3367 35.7712 38.5 34.8005 38.5H28.8085V37.254L29.1445 36.918H29.8165L30.2785 36.148V28.14H31.5945V32.606L31.4265 34.244L31.4965 34.286C32.0472 33.6047 32.6165 33.1287 33.2045 32.858C33.8019 32.578 34.4505 32.438 35.1505 32.438C36.1399 32.438 36.8959 32.7133 37.4185 33.264C37.9412 33.8053 38.2025 34.5567 38.2025 35.518C38.2025 36.0407 38.1325 36.484 37.9925 36.848C38.1045 36.876 38.2165 36.8947 38.3285 36.904C38.4499 36.9133 38.5759 36.918 38.7065 36.918H39.0425V38.164L38.7065 38.5ZM34.8005 36.918C35.5845 36.918 36.1539 36.82 36.5085 36.624C36.8632 36.428 37.0405 36.0687 37.0405 35.546C37.0405 34.538 36.4805 34.034 35.3605 34.034H34.9405C34.5485 34.034 34.1985 34.062 33.8905 34.118C33.5825 34.174 33.2932 34.272 33.0225 34.412C32.7612 34.552 32.5139 34.7433 32.2805 34.986C32.0472 35.2287 31.8045 35.5367 31.5525 35.91L30.9505 36.834L30.9925 36.918H34.8005ZM38.707 37.254L39.043 36.918C39.3323 36.918 39.561 36.9087 39.729 36.89C39.9063 36.8713 40.0603 36.8293 40.191 36.764C40.163 36.6147 40.149 36.4513 40.149 36.274C40.149 35.7513 40.3123 35.2707 40.639 34.832C40.975 34.3933 41.4743 33.964 42.137 33.544L42.907 33.068H44.321L45.371 35.882C45.4456 36.0873 45.5203 36.26 45.595 36.4C45.6696 36.5307 45.749 36.6333 45.833 36.708C45.9263 36.7827 46.029 36.8387 46.141 36.876C46.253 36.904 46.3883 36.918 46.547 36.918H46.883V38.164L46.547 38.5C46.0336 38.5 45.6276 38.4253 45.329 38.276C45.0303 38.1173 44.769 37.8467 44.545 37.464L44.461 37.478V38.5H42.739C42.1136 38.5 41.6003 38.3973 41.199 38.192C40.807 37.9773 40.5223 37.674 40.345 37.282H40.261C40.1303 37.702 39.9436 38.01 39.701 38.206C39.4583 38.402 39.127 38.5 38.707 38.5V37.254ZM41.227 36.12C41.227 36.4 41.339 36.6053 41.563 36.736C41.787 36.8573 42.109 36.918 42.529 36.918H44.279C44.2416 36.8433 44.209 36.764 44.181 36.68C44.153 36.596 44.1203 36.5073 44.083 36.414L43.341 34.426L42.501 34.846C42.1276 35.0327 41.8196 35.2333 41.577 35.448C41.3436 35.6533 41.227 35.8773 41.227 36.12ZM46.541 37.254L46.877 36.918H47.367C47.7776 36.918 48.0623 36.8293 48.221 36.652C48.389 36.4747 48.473 36.1947 48.473 35.812V28.14H49.789V35.812C49.789 36.736 49.6023 37.4173 49.229 37.856C48.8556 38.2853 48.235 38.5 47.367 38.5H46.541V37.254ZM51.7258 28.14H53.0278V38.5H51.7258V28.14Z" fill="#6E7484"/>
<g clip-path="url(#clip0_59_28467)">
<path d="M135.369 13.292C135.745 13.292 136.08 13.0707 136.08 12.64C136.08 12.2632 135.775 12 135.369 12C134.962 12 134.657 12.2632 134.657 12.64C134.657 13.0707 135.004 13.292 135.369 13.292Z" fill="#0E8485"/>
<path d="M120.02 13.2262C120.02 13.6868 119.667 13.9261 119.254 13.9261C118.853 13.9261 118.489 13.6868 118.489 13.2262C118.489 12.8135 118.818 12.5264 119.254 12.5264C119.691 12.5264 120.02 12.8135 120.02 13.2262Z" fill="#0E8485"/>
<path d="M163.895 12.7717H162.674V20.5537H163.895V12.7717Z" fill="#0E8485"/>
<path d="M158.152 17.6766C158.152 15.918 157.345 15.0148 155.55 15.0148H154.695V16.235H155.724C156.567 16.235 157.004 16.6657 157.004 17.5569V19.3275H153.612V20.5537H158.152V17.6766Z" fill="#0E8485"/>
<path d="M97.1523 28.1024C97.1523 28.563 96.7994 28.8022 96.3866 28.8022C95.9859 28.8022 95.621 28.563 95.621 28.1024C95.621 27.6897 95.956 27.4026 96.3866 27.4026C96.8173 27.4026 97.1523 27.6897 97.1523 28.1024Z" fill="#0E8485"/>
<path d="M99.192 28.1024C99.192 28.563 98.8391 28.8022 98.4264 28.8022C98.0256 28.8022 97.6607 28.563 97.6607 28.1024C97.6607 27.6897 97.9897 27.4026 98.4264 27.4026C98.8631 27.4026 99.192 27.6897 99.192 28.1024Z" fill="#0E8485"/>
<path d="M100.227 36.3989C99.7962 36.3989 99.4612 36.686 99.4612 37.0987C99.4612 37.5593 99.8261 37.7986 100.227 37.7986C100.628 37.7986 100.992 37.5593 100.992 37.0987C100.992 36.686 100.658 36.3989 100.227 36.3989Z" fill="#0E8485"/>
<path d="M101.495 37.0987C101.495 36.686 101.83 36.3989 102.261 36.3989C102.697 36.3989 103.026 36.686 103.026 37.0987C103.026 37.5593 102.661 37.7986 102.261 37.7986C101.86 37.7986 101.495 37.5593 101.495 37.0987Z" fill="#0E8485"/>
<path fill-rule="evenodd" clip-rule="evenodd" d="M107.052 32.5946C107.052 31.6136 107.674 31.0394 108.547 31.0394C109.02 31.0394 109.48 31.1829 110.043 31.4402L110.443 30.3096C109.714 29.9926 109.02 29.8192 108.457 29.8192C106.938 29.8192 105.885 30.7403 105.885 32.3793C105.885 32.8698 105.999 33.4559 106.268 34.2036H103.648V29.8909H102.428V34.2036H99.1322V29.8909H97.1403C95.2501 29.8909 94 31.0334 94 32.6664V32.6783C94 34.2994 95.2023 35.4358 96.9729 35.4358H110.635V34.2096H107.602C107.237 33.6713 107.046 33.097 107.046 32.5946H107.052ZM97.9119 34.2096H96.8771C95.8902 34.2096 95.1604 33.5935 95.1604 32.6843V32.6724C95.1604 31.7333 95.8782 31.1171 96.8771 31.1171H97.9119V34.2096Z" fill="#0E8485"/>
<path d="M122.317 28.3536C122.317 28.8142 121.964 29.0535 121.551 29.0535C121.15 29.0535 120.786 28.8142 120.786 28.3536C120.786 27.9409 121.12 27.6538 121.551 27.6538C121.982 27.6538 122.317 27.9409 122.317 28.3536Z" fill="#0E8485"/>
<path d="M123.591 29.0535C124.004 29.0535 124.357 28.8142 124.357 28.3536C124.357 27.9409 124.028 27.6538 123.591 27.6538C123.154 27.6538 122.825 27.9409 122.825 28.3536C122.825 28.8142 123.19 29.0535 123.591 29.0535Z" fill="#0E8485"/>
<path fill-rule="evenodd" clip-rule="evenodd" d="M127.09 30.3336C127.772 29.9747 128.43 29.7653 129.118 29.7653C131.027 29.7653 131.717 31.3894 132.268 32.6849C132.573 33.403 132.836 34.0202 133.239 34.2036V35.4299H118.184C117.232 35.4299 116.467 35.1966 115.994 34.5326C115.647 35.2086 114.876 35.4299 113.984 35.4299H111.915V27.6478H113.135V34.2036H113.984C114.953 34.2036 115.462 33.7371 115.468 32.6784V32.7023C115.474 30.9437 116.557 29.7653 118.184 29.7653H118.195C119.822 29.7653 120.905 30.9497 120.905 32.7142V34.2096H124.201V29.8969H125.421V34.2096H131.636C131.429 33.8388 131.256 33.4536 131.09 33.084C130.59 31.9693 130.154 30.9975 129.04 30.9975C128.496 30.9975 128.101 31.1112 127.533 31.4581L127.09 30.3336ZM118.189 34.2036H119.685L119.691 34.1977V32.6784C119.691 31.6615 119.093 30.9915 118.201 30.9915H118.189C117.298 30.9915 116.694 31.6615 116.694 32.6784V32.6903C116.694 33.7012 117.298 34.2036 118.189 34.2036Z" fill="#0E8485"/>
<path d="M129.895 36.3989C129.453 36.3989 129.106 36.68 129.106 37.0987C129.106 37.5713 129.483 37.8105 129.895 37.8105C130.308 37.8105 130.661 37.5713 130.661 37.0987C130.661 36.674 130.314 36.3989 129.895 36.3989Z" fill="#0E8485"/>
<path d="M134.764 34.2096H139.095V27.6538H140.309V35.4358H134.764V34.2096Z" fill="#0E8485"/>
<path d="M137.289 28.4135H136.062V33.5516H137.289V28.4135Z" fill="#0E8485"/>
<path d="M141.906 27.6538H143.127V35.4358H141.906V27.6538Z" fill="#0E8485"/>
<path d="M147.457 28.1024C147.457 28.563 147.822 28.8022 148.223 28.8022C148.624 28.8022 148.989 28.563 148.989 28.1024C148.989 27.6897 148.654 27.4026 148.223 27.4026C147.792 27.4026 147.457 27.6897 147.457 28.1024Z" fill="#0E8485"/>
<path d="M150.263 28.8022C149.862 28.8022 149.497 28.563 149.497 28.1024C149.497 27.6897 149.826 27.4026 150.263 27.4026C150.699 27.4026 151.028 27.6897 151.028 28.1024C151.028 28.563 150.663 28.8022 150.263 28.8022Z" fill="#0E8485"/>
<path d="M152.057 36.3989C151.627 36.3989 151.292 36.686 151.292 37.0987C151.292 37.5593 151.656 37.7986 152.057 37.7986C152.458 37.7986 152.823 37.5593 152.823 37.0987C152.823 36.686 152.488 36.3989 152.057 36.3989Z" fill="#0E8485"/>
<path d="M153.331 37.0987C153.331 36.686 153.666 36.3989 154.097 36.3989C154.54 36.3989 154.863 36.686 154.863 37.0987C154.863 37.5593 154.498 37.7986 154.097 37.7986C153.696 37.7986 153.331 37.5593 153.331 37.0987Z" fill="#0E8485"/>
<path d="M165.019 29.0655C165.42 29.0655 165.785 28.8262 165.785 28.3536C165.785 27.929 165.438 27.6538 165.019 27.6538C164.601 27.6538 164.23 27.9349 164.23 28.3536C164.23 28.8262 164.607 29.0655 165.019 29.0655Z" fill="#0E8485"/>
<path d="M168.351 28.3536C168.351 27.9409 168.686 27.6538 169.117 27.6538C169.547 27.6538 169.882 27.9409 169.882 28.3536C169.882 28.8142 169.517 29.0535 169.117 29.0535C168.716 29.0535 168.351 28.8142 168.351 28.3536Z" fill="#0E8485"/>
<path d="M170.51 28.3536C170.51 28.8142 170.875 29.0535 171.276 29.0535C171.677 29.0535 172.042 28.8142 172.042 28.3536C172.042 27.9409 171.713 27.6538 171.276 27.6538C170.839 27.6538 170.51 27.9409 170.51 28.3536Z" fill="#0E8485"/>
<path fill-rule="evenodd" clip-rule="evenodd" d="M173.274 34.2096H175.828V27.6538H177.048V35.4358H160.928C159.977 35.4358 159.211 35.2025 158.739 34.5386C158.392 35.2145 157.62 35.4358 156.729 35.4358H148.815C147.039 35.4358 145.836 34.2993 145.836 32.6783V32.6664C145.836 31.0334 147.087 29.8909 148.977 29.8909H150.969V34.2036H154.264V29.8909H155.485V34.2036H156.729C157.698 34.2036 158.206 33.7371 158.212 32.6783V32.7023C158.218 30.9437 159.301 29.7653 160.928 29.7653H160.94C162.561 29.7653 163.644 30.9497 163.644 32.7142V34.2096H167.137V29.8969H168.357V34.2096H172.054V29.8969H173.274V34.2096ZM148.719 34.2096H149.754V31.1171H148.719C147.721 31.1171 147.003 31.7332 147.003 32.6723V32.6843C147.003 33.5935 147.733 34.2096 148.719 34.2096ZM160.934 34.2096H162.429L162.435 34.2036V32.6843C162.435 31.6674 161.837 30.9975 160.946 30.9975H160.934C160.043 30.9975 159.438 31.6674 159.438 32.6843V32.6963C159.438 33.7072 160.043 34.2096 160.934 34.2096Z" fill="#0E8485"/>
<path d="M179.86 27.6538H178.639V35.4358H179.86V27.6538Z" fill="#0E8485"/>
<path fill-rule="evenodd" clip-rule="evenodd" d="M180.894 32.6723C180.894 31.0394 182.145 29.8969 184.035 29.8969L184.029 29.9029H186.021V35.1308C186.021 36.9851 185.237 37.5593 183.67 37.5593C183.179 37.5593 182.737 37.4995 182.258 37.3679L182.007 36.0699C182.563 36.2433 183.096 36.3271 183.622 36.3271C184.298 36.3271 184.765 36.1117 184.794 35.4418H183.867C182.097 35.4418 180.894 34.3053 180.894 32.6843V32.6723ZM184.794 32.6424H184.806V31.1171H183.772C182.773 31.1171 182.055 31.7332 182.055 32.6723V32.6843C182.055 33.5935 182.785 34.2096 183.772 34.2096H184.794V32.6424Z" fill="#0E8485"/>
<path d="M160.031 15.0148H161.257V20.3384C161.257 22.1508 160.348 22.6712 159.044 22.6712C158.775 22.6712 158.505 22.6413 158.266 22.5814L158.38 21.5167C158.697 21.5466 158.906 21.5646 159.157 21.5646C159.678 21.5646 160.031 21.2954 160.031 20.5357V15.0148Z" fill="#0E8485"/>
<path fill-rule="evenodd" clip-rule="evenodd" d="M168.836 20.5597H167.908L167.902 20.5716C166.132 20.5716 164.93 19.4351 164.93 17.8141V17.8021C164.93 16.1692 166.18 15.0267 168.07 15.0267H170.062V19.3394H172.544C173.513 19.3394 174.022 18.8728 174.028 17.8141V17.838C174.028 16.0795 175.116 14.9011 176.743 14.9011H176.755C178.376 14.9011 179.459 16.0854 179.459 17.85V19.3394H182.001V12.7836H183.221V20.5656H176.749C175.798 20.5656 175.032 20.3324 174.56 19.6684C174.225 20.3144 173.507 20.5417 172.664 20.5656H170.05C169.966 22.1687 168.943 22.6771 167.472 22.6771C166.981 22.6771 166.778 22.6233 166.299 22.4857L166.048 21.1877C166.604 21.3612 167.137 21.4449 167.663 21.4449C168.339 21.4449 168.806 21.2296 168.836 20.5597ZM176.743 16.1333C175.852 16.1333 175.248 16.8032 175.248 17.8201L175.254 17.8141V17.8261C175.254 18.837 175.858 19.3394 176.749 19.3394H178.245V17.8201C178.245 16.8032 177.646 16.1333 176.755 16.1333H176.743ZM167.807 16.2469C166.808 16.2469 166.09 16.863 166.09 17.8021V17.8141C166.09 18.7233 166.82 19.3394 167.807 19.3394H168.83V17.7722H168.842V16.2469H167.807Z" fill="#0E8485"/>
<path d="M186.027 12.7717H184.806V20.5537H186.027V12.7717Z" fill="#0E8485"/>
<path d="M117.214 13.9261C117.627 13.9261 117.98 13.6868 117.98 13.2262C117.98 12.8135 117.645 12.5264 117.214 12.5264C116.784 12.5264 116.449 12.8135 116.449 13.2262C116.449 13.6868 116.814 13.9261 117.214 13.9261Z" fill="#0E8485"/>
<path fill-rule="evenodd" clip-rule="evenodd" d="M124.482 20.5597H117.807C116.036 20.5597 114.834 19.4232 114.834 17.8022V17.7902C114.834 16.1572 116.084 15.0148 117.974 15.0148H119.966V19.3275H123.262V15.0148H124.482V20.5597ZM117.711 16.241C116.712 16.241 115.994 16.8571 115.994 17.7962V17.8082C115.994 18.7174 116.724 19.3335 117.711 19.3335H118.746V16.241H117.711Z" fill="#0E8485"/>
<path d="M135.117 14.1474C135.117 14.596 134.764 14.8293 134.37 14.8293C133.987 14.8293 133.634 14.596 133.634 14.1474C133.634 13.7466 133.951 13.4775 134.37 13.4775C134.788 13.4775 135.117 13.7406 135.117 14.1474Z" fill="#0E8485"/>
<path d="M135.626 14.1474C135.626 14.596 135.973 14.8293 136.368 14.8293C136.762 14.8293 137.103 14.602 137.103 14.1474C137.103 13.7466 136.786 13.4775 136.368 13.4775C135.949 13.4775 135.626 13.7466 135.626 14.1474Z" fill="#0E8485"/>
<path d="M146.752 12.7717H147.984V20.5537H128.245C128.185 22.1867 127.275 22.6652 126.025 22.6652C125.756 22.6652 125.487 22.6413 125.248 22.5815L125.361 21.5167C125.678 21.5466 125.888 21.5646 126.139 21.5646C126.659 21.5646 127.012 21.2954 127.012 20.5358V14.8951H128.239V19.3275H131.385V15.7864H132.605V19.3275H134.83V15.7864H136.062V19.3275H138.623V15.0148H139.849V19.3275H143.145V15.0148H144.365V19.3275H146.752V12.7717Z" fill="#0E8485"/>
<path d="M150.777 12.7717H149.557V20.5537H150.777V12.7717Z" fill="#0E8485"/>
<path d="M120.971 21.5167C121.402 21.5167 121.737 21.8038 121.737 22.2166C121.737 22.6771 121.372 22.9164 120.971 22.9164C120.57 22.9164 120.205 22.6771 120.205 22.2166C120.205 21.8038 120.54 21.5167 120.971 21.5167Z" fill="#0E8485"/>
<path d="M123.776 22.2166C123.776 21.8038 123.447 21.5167 123.011 21.5167C122.574 21.5167 122.245 21.8038 122.245 22.2166C122.245 22.6771 122.61 22.9164 123.011 22.9164C123.411 22.9164 123.776 22.6771 123.776 22.2166Z" fill="#0E8485"/>
<path d="M140.716 22.2285C140.716 21.8158 141.051 21.5287 141.482 21.5287C141.918 21.5287 142.247 21.8158 142.247 22.2285C142.247 22.6891 141.883 22.9284 141.482 22.9284C141.081 22.9284 140.716 22.6891 140.716 22.2285Z" fill="#0E8485"/>
<path d="M217.476 12.9245C217.734 12.9592 217.989 13.0056 218.247 13.048C219.416 10.8954 220.778 8.85328 222.315 6.94659C218.433 3.92146 214.069 1.57297 209.406 0L217.476 12.9245ZM238.315 29.3146L225.024 25.0039L240.643 50C241.561 43.0182 240.762 35.9177 238.315 29.3146Z" fill="#158285"/>
<path d="M216.522 19.6859C222.28 10.4701 229.787 3.74349 240.642 0.00390625L225.024 25.0039L209.402 50C208.009 38.5961 210.764 28.9017 216.522 19.6859Z" fill="#F7941D"/>
<path d="M194 14.9198L210.614 20.3227C212.377 19.348 214.188 18.4632 216.04 17.6714C216.279 17.0848 216.537 16.4982 216.812 15.9116C217.263 14.9275 217.746 13.982 218.255 13.048C210.139 11.6799 201.811 12.3226 194 14.9198ZM239.431 20.3227L225.024 25.0039L256.045 35.0842C251.681 28.9801 246.004 23.933 239.431 20.315V20.3227Z" fill="#2BB574"/>
<path d="M194 35.0765L211.729 29.3147C212.375 27.5798 213.118 25.8828 213.956 24.2321C214.47 21.9918 215.167 19.7976 216.04 17.6714C207.253 21.4341 199.893 26.9335 194 35.0765ZM232.569 12.9246L225.024 25.0039L256.045 14.9275C248.489 12.4086 240.442 11.7221 232.569 12.9246Z" fill="#FCB614"/>
</g>
<defs>
<clipPath id="clip0_59_28467">
<rect width="162.045" height="50" fill="white" transform="translate(94)"/>
</clipPath>
</defs>
</svg>
