<svg width="164" height="50" viewBox="0 0 164 50" fill="none" xmlns="http://www.w3.org/2000/svg">
<g clip-path="url(#clip0_91_8529)">
<path d="M42.3463 13.292C42.7231 13.292 43.058 13.0707 43.058 12.64C43.058 12.2632 42.753 12 42.3463 12C41.9395 12 41.6345 12.2632 41.6345 12.64C41.6345 13.0707 41.9814 13.292 42.3463 13.292Z" fill="#0E8485"/>
<path d="M26.9975 13.2262C26.9975 13.6868 26.6446 13.9261 26.2319 13.9261C25.8311 13.9261 25.4662 13.6868 25.4662 13.2262C25.4662 12.8135 25.7953 12.5264 26.2319 12.5264C26.6686 12.5264 26.9975 12.8135 26.9975 13.2262Z" fill="#0E8485"/>
<path d="M70.8724 12.7717H69.6522V20.5537H70.8724V12.7717Z" fill="#0E8485"/>
<path d="M65.1301 17.6766C65.1301 15.918 64.3226 15.0148 62.5281 15.0148H61.6728V16.235H62.7016C63.545 16.235 63.9816 16.6657 63.9816 17.5569V19.3275H60.5901V20.5537H65.1301V17.6766Z" fill="#0E8485"/>
<path d="M4.12995 28.1024C4.12995 28.563 3.77702 28.8022 3.36429 28.8022C2.96352 28.8022 2.59866 28.563 2.59866 28.1024C2.59866 27.6897 2.93361 27.4026 3.36429 27.4026C3.79496 27.4026 4.12995 27.6897 4.12995 28.1024Z" fill="#0E8485"/>
<path d="M6.16968 28.1024C6.16968 28.563 5.81679 28.8022 5.40406 28.8022C5.00329 28.8022 4.6384 28.563 4.6384 28.1024C4.6384 27.6897 4.9674 27.4026 5.40406 27.4026C5.84071 27.4026 6.16968 27.6897 6.16968 28.1024Z" fill="#0E8485"/>
<path d="M7.2045 36.3989C6.77383 36.3989 6.43884 36.686 6.43884 37.0987C6.43884 37.5593 6.80374 37.7986 7.2045 37.7986C7.60527 37.7986 7.97013 37.5593 7.97013 37.0987C7.97013 36.686 7.63518 36.3989 7.2045 36.3989Z" fill="#0E8485"/>
<path d="M8.4726 37.0987C8.4726 36.686 8.80754 36.3989 9.23822 36.3989C9.67487 36.3989 10.0039 36.686 10.0039 37.0987C10.0039 37.5593 9.63898 37.7986 9.23822 37.7986C8.83745 37.7986 8.4726 37.5593 8.4726 37.0987Z" fill="#0E8485"/>
<path fill-rule="evenodd" clip-rule="evenodd" d="M14.0295 32.5946C14.0295 31.6136 14.6516 31.0394 15.5249 31.0394C15.9974 31.0394 16.458 31.1829 17.0203 31.4402L17.421 30.3096C16.6913 29.9926 15.9974 29.8192 15.4351 29.8192C13.9158 29.8192 12.8631 30.7403 12.8631 32.3793C12.8631 32.8698 12.9767 33.4559 13.2459 34.2036H10.6259V29.8909H9.40572V34.2036H6.10987V29.8909H4.11799C2.22781 29.8909 0.977661 31.0334 0.977661 32.6664V32.6783C0.977661 34.2994 2.17998 35.4358 3.95052 35.4358H17.6124V34.2096H14.5798C14.2149 33.6713 14.0235 33.097 14.0235 32.5946H14.0295ZM4.8896 34.2096H3.8548C2.86784 34.2096 2.13809 33.5935 2.13809 32.6843V32.6724C2.13809 31.7333 2.85588 31.1171 3.8548 31.1171H4.8896V34.2096Z" fill="#0E8485"/>
<path d="M29.2945 28.3536C29.2945 28.8142 28.9415 29.0535 28.5288 29.0535C28.128 29.0535 27.7632 28.8142 27.7632 28.3536C27.7632 27.9409 28.0981 27.6538 28.5288 27.6538C28.9595 27.6538 29.2945 27.9409 29.2945 28.3536Z" fill="#0E8485"/>
<path d="M30.5685 29.0535C30.9813 29.0535 31.3342 28.8142 31.3342 28.3536C31.3342 27.9409 31.0052 27.6538 30.5685 27.6538C30.1319 27.6538 29.8029 27.9409 29.8029 28.3536C29.8029 28.8142 30.1678 29.0535 30.5685 29.0535Z" fill="#0E8485"/>
<path fill-rule="evenodd" clip-rule="evenodd" d="M34.0677 30.3336C34.7496 29.9747 35.4076 29.7653 36.0955 29.7653C38.0042 29.7653 38.6949 31.3894 39.2458 32.6849C39.5511 33.403 39.8136 34.0202 40.2168 34.2036V35.4299H25.1612C24.2101 35.4299 23.4445 35.1966 22.9719 34.5326C22.625 35.2086 21.8534 35.4299 20.9621 35.4299H18.8925V27.6478H20.1127V34.2036H20.9621C21.9311 34.2036 22.4396 33.7371 22.4455 32.6784V32.7023C22.4515 30.9437 23.5342 29.7653 25.1612 29.7653H25.1731C26.8001 29.7653 27.8828 30.9497 27.8828 32.7142V34.2096H31.1786V29.8969H32.3989V34.2096H38.6137C38.4067 33.8388 38.2339 33.4536 38.0681 33.084C37.5679 31.9693 37.1318 30.9975 36.0177 30.9975C35.4734 30.9975 35.0786 31.1112 34.5104 31.4581L34.0677 30.3336ZM25.1672 34.2036H26.6626L26.6685 34.1977V32.6784C26.6685 31.6615 26.0704 30.9915 25.1791 30.9915H25.1672C24.2759 30.9915 23.6718 31.6615 23.6718 32.6784V32.6903C23.6718 33.7012 24.2759 34.2036 25.1672 34.2036Z" fill="#0E8485"/>
<path d="M36.8731 36.3989C36.4305 36.3989 36.0836 36.68 36.0836 37.0987C36.0836 37.5713 36.4604 37.8105 36.8731 37.8105C37.2859 37.8105 37.6388 37.5713 37.6388 37.0987C37.6388 36.674 37.2918 36.3989 36.8731 36.3989Z" fill="#0E8485"/>
<path d="M41.7421 34.2096H46.0728V27.6538H47.287V35.4358H41.7421V34.2096Z" fill="#0E8485"/>
<path d="M44.2663 28.4135H43.0401V33.5516H44.2663V28.4135Z" fill="#0E8485"/>
<path d="M48.8841 27.6538H50.1044V35.4358H48.8841V27.6538Z" fill="#0E8485"/>
<path d="M54.435 28.1024C54.435 28.563 54.7999 28.8022 55.2007 28.8022C55.6015 28.8022 55.9663 28.563 55.9663 28.1024C55.9663 27.6897 55.6314 27.4026 55.2007 27.4026C54.77 27.4026 54.435 27.6897 54.435 28.1024Z" fill="#0E8485"/>
<path d="M57.2404 28.8022C56.8396 28.8022 56.4748 28.563 56.4748 28.1024C56.4748 27.6897 56.8037 27.4026 57.2404 27.4026C57.677 27.4026 58.006 27.6897 58.006 28.1024C58.006 28.563 57.6412 28.8022 57.2404 28.8022Z" fill="#0E8485"/>
<path d="M59.0348 36.3989C58.6042 36.3989 58.2692 36.686 58.2692 37.0987C58.2692 37.5593 58.6341 37.7986 59.0348 37.7986C59.4356 37.7986 59.8005 37.5593 59.8005 37.0987C59.8005 36.686 59.4655 36.3989 59.0348 36.3989Z" fill="#0E8485"/>
<path d="M60.3089 37.0987C60.3089 36.686 60.6439 36.3989 61.0746 36.3989C61.5172 36.3989 61.8402 36.686 61.8402 37.0987C61.8402 37.5593 61.4754 37.7986 61.0746 37.7986C60.6738 37.7986 60.3089 37.5593 60.3089 37.0987Z" fill="#0E8485"/>
<path d="M71.9969 29.0655C72.3977 29.0655 72.7626 28.8262 72.7626 28.3536C72.7626 27.929 72.4156 27.6538 71.9969 27.6538C71.5782 27.6538 71.2074 27.9349 71.2074 28.3536C71.2074 28.8262 71.5842 29.0655 71.9969 29.0655Z" fill="#0E8485"/>
<path d="M75.3287 28.3536C75.3287 27.9409 75.6636 27.6538 76.0943 27.6538C76.525 27.6538 76.8599 27.9409 76.8599 28.3536C76.8599 28.8142 76.4951 29.0535 76.0943 29.0535C75.6935 29.0535 75.3287 28.8142 75.3287 28.3536Z" fill="#0E8485"/>
<path d="M77.488 28.3536C77.488 28.8142 77.8529 29.0535 78.2537 29.0535C78.6545 29.0535 79.0193 28.8142 79.0193 28.3536C79.0193 27.9409 78.6904 27.6538 78.2537 27.6538C77.817 27.6538 77.488 27.9409 77.488 28.3536Z" fill="#0E8485"/>
<path fill-rule="evenodd" clip-rule="evenodd" d="M80.2516 34.2096H82.8057V27.6538H84.0259V35.4358H67.9056C66.9545 35.4358 66.1888 35.2025 65.7163 34.5386C65.3694 35.2145 64.5977 35.4358 63.7065 35.4358H55.7929C54.0163 35.4358 52.8141 34.2993 52.8141 32.6783V32.6664C52.8141 31.0334 54.0642 29.8909 55.9544 29.8909H57.9462V34.2036H61.2421V29.8909H62.4623V34.2036H63.7065C64.6755 34.2036 65.1839 33.7371 65.1899 32.6783V32.7023C65.1959 30.9437 66.2786 29.7653 67.9056 29.7653H67.9175C69.5386 29.7653 70.6212 30.9497 70.6212 32.7142V34.2096H74.1144V29.8969H75.3347V34.2096H79.0313V29.8969H80.2516V34.2096ZM55.6971 34.2096H56.732V31.1171H55.6971C54.6982 31.1171 53.9804 31.7332 53.9804 32.6723V32.6843C53.9804 33.5935 54.7102 34.2096 55.6971 34.2096ZM67.9116 34.2096H69.407L69.4129 34.2036V32.6843C69.4129 31.6674 68.8147 30.9975 67.9235 30.9975H67.9116C67.0203 30.9975 66.4162 31.6674 66.4162 32.6843V32.6963C66.4162 33.7072 67.0203 34.2096 67.9116 34.2096Z" fill="#0E8485"/>
<path d="M86.8373 27.6538H85.617V35.4358H86.8373V27.6538Z" fill="#0E8485"/>
<path fill-rule="evenodd" clip-rule="evenodd" d="M87.8721 32.6723C87.8721 31.0394 89.1222 29.8969 91.0124 29.8969L91.0064 29.9029H92.9983V35.1308C92.9983 36.9851 92.2147 37.5593 90.6475 37.5593C90.157 37.5593 89.7144 37.4995 89.2359 37.3679L88.9846 36.0699C89.5409 36.2433 90.0732 36.3271 90.5996 36.3271C91.2756 36.3271 91.7422 36.1117 91.7721 35.4418H90.8449C89.0743 35.4418 87.8721 34.3053 87.8721 32.6843V32.6723ZM91.7721 32.6424H91.784V31.1171H90.7492C89.7502 31.1171 89.0325 31.7332 89.0325 32.6723V32.6843C89.0325 33.5935 89.7622 34.2096 90.7492 34.2096H91.7721V32.6424Z" fill="#0E8485"/>
<path d="M67.0083 15.0148H68.2345V20.3384C68.2345 22.1508 67.3253 22.6712 66.0213 22.6712C65.7522 22.6712 65.483 22.6413 65.2437 22.5814L65.3574 21.5167C65.6744 21.5466 65.8838 21.5646 66.135 21.5646C66.6554 21.5646 67.0083 21.2954 67.0083 20.5357V15.0148Z" fill="#0E8485"/>
<path fill-rule="evenodd" clip-rule="evenodd" d="M75.8132 20.5597H74.8861L74.8801 20.5716C73.1095 20.5716 71.9072 19.4351 71.9072 17.8141V17.8021C71.9072 16.1692 73.1573 15.0267 75.0475 15.0267H77.0394V19.3394H79.5218C80.4908 19.3394 80.9992 18.8728 81.0052 17.8141V17.838C81.0052 16.0795 82.0938 14.9011 83.7208 14.9011H83.7328C85.3538 14.9011 86.4365 16.0854 86.4365 17.85V19.3394H88.9786V12.7836H90.1989V20.5656H83.7268C82.7757 20.5656 82.0101 20.3324 81.5376 19.6684C81.2026 20.3144 80.4848 20.5417 79.6414 20.5656H77.0275C76.9437 22.1687 75.9208 22.6771 74.4494 22.6771C73.9589 22.6771 73.7555 22.6233 73.277 22.4857L73.0258 21.1877C73.5821 21.3612 74.1144 21.4449 74.6408 21.4449C75.3167 21.4449 75.7833 21.2296 75.8132 20.5597ZM83.7208 16.1333C82.8296 16.1333 82.2254 16.8032 82.2254 17.8201L82.2314 17.8141V17.8261C82.2314 18.837 82.8355 19.3394 83.7268 19.3394H85.2222V17.8201C85.2222 16.8032 84.624 16.1333 83.7328 16.1333H83.7208ZM74.7844 16.2469C73.7854 16.2469 73.0677 16.863 73.0677 17.8021V17.8141C73.0677 18.7233 73.7974 19.3394 74.7844 19.3394H75.8072V17.7722H75.8192V16.2469H74.7844Z" fill="#0E8485"/>
<path d="M93.0042 12.7717H91.7841V20.5537H93.0042V12.7717Z" fill="#0E8485"/>
<path d="M24.1921 13.9261C24.6049 13.9261 24.9578 13.6868 24.9578 13.2262C24.9578 12.8135 24.6228 12.5264 24.1921 12.5264C23.7615 12.5264 23.4265 12.8135 23.4265 13.2262C23.4265 13.6868 23.7914 13.9261 24.1921 13.9261Z" fill="#0E8485"/>
<path fill-rule="evenodd" clip-rule="evenodd" d="M31.4598 20.5597H24.7843C23.0138 20.5597 21.8115 19.4232 21.8115 17.8022V17.7902C21.8115 16.1572 23.0617 15.0148 24.9519 15.0148H26.9437V19.3275H30.2395V15.0148H31.4598V20.5597ZM24.6887 16.241C23.6897 16.241 22.972 16.8571 22.972 17.7962V17.8082C22.972 18.7174 23.7017 19.3335 24.6887 19.3335H25.7235V16.241H24.6887Z" fill="#0E8485"/>
<path d="M42.095 14.1474C42.095 14.596 41.7421 14.8293 41.3473 14.8293C40.9645 14.8293 40.6116 14.596 40.6116 14.1474C40.6116 13.7466 40.9286 13.4775 41.3473 13.4775C41.766 13.4775 42.095 13.7406 42.095 14.1474Z" fill="#0E8485"/>
<path d="M42.6035 14.1474C42.6035 14.596 42.9504 14.8293 43.3452 14.8293C43.74 14.8293 44.0809 14.602 44.0809 14.1474C44.0809 13.7466 43.7639 13.4775 43.3452 13.4775C42.9265 13.4775 42.6035 13.7466 42.6035 14.1474Z" fill="#0E8485"/>
<path d="M53.7292 12.7717H54.9614V20.5537H35.2222C35.1624 22.1867 34.2532 22.6652 33.003 22.6652C32.7338 22.6652 32.4647 22.6413 32.2254 22.5815L32.3391 21.5167C32.6561 21.5466 32.8654 21.5646 33.1167 21.5646C33.6371 21.5646 33.99 21.2954 33.99 20.5358V14.8951H35.2162V19.3275H38.3625V15.7864H39.5827V19.3275H41.8079V15.7864H43.0401V19.3275H45.6002V15.0148H46.8265V19.3275H50.1223V15.0148H51.3425V19.3275H53.7292V12.7717Z" fill="#0E8485"/>
<path d="M57.7548 12.7717H56.5345V20.5537H57.7548V12.7717Z" fill="#0E8485"/>
<path d="M27.9486 21.5167C28.3793 21.5167 28.7142 21.8038 28.7142 22.2166C28.7142 22.6771 28.3494 22.9164 27.9486 22.9164C27.5478 22.9164 27.183 22.6771 27.183 22.2166C27.183 21.8038 27.5179 21.5167 27.9486 21.5167Z" fill="#0E8485"/>
<path d="M30.754 22.2166C30.754 21.8038 30.425 21.5167 29.9883 21.5167C29.5517 21.5167 29.2227 21.8038 29.2227 22.2166C29.2227 22.6771 29.5876 22.9164 29.9883 22.9164C30.3891 22.9164 30.754 22.6771 30.754 22.2166Z" fill="#0E8485"/>
<path d="M47.6938 22.2285C47.6938 21.8158 48.0288 21.5287 48.4594 21.5287C48.8961 21.5287 49.2251 21.8158 49.2251 22.2285C49.2251 22.6891 48.8602 22.9284 48.4594 22.9284C48.0587 22.9284 47.6938 22.6891 47.6938 22.2285Z" fill="#0E8485"/>
<path d="M124.453 12.9245C124.712 12.9592 124.967 13.0056 125.225 13.048C126.394 10.8954 127.755 8.85328 129.293 6.94659C125.411 3.92146 121.047 1.57297 116.384 0L124.453 12.9245ZM145.293 29.3146L132.002 25.0039L147.62 50C148.539 43.0182 147.74 35.9177 145.293 29.3146Z" fill="#158285"/>
<path d="M123.5 19.6859C129.258 10.4701 136.764 3.74349 147.62 0.00390625L132.002 25.0039L116.38 50C114.987 38.5961 117.742 28.9017 123.5 19.6859Z" fill="#F7941D"/>
<path d="M100.978 14.9198L117.592 20.3227C119.354 19.348 121.165 18.4632 123.018 17.6714C123.257 17.0848 123.514 16.4982 123.789 15.9116C124.241 14.9275 124.723 13.982 125.233 13.048C117.116 11.6799 108.788 12.3226 100.978 14.9198ZM146.408 20.3227L132.002 25.0039L163.022 35.0842C158.659 28.9801 152.982 23.933 146.408 20.315V20.3227Z" fill="#2BB574"/>
<path d="M100.978 35.0755L118.707 29.3137C119.353 27.5788 120.096 25.8819 120.934 24.2311C121.448 21.9909 122.145 19.7966 123.018 17.6704C114.23 21.4332 106.871 26.9326 100.978 35.0755ZM139.547 12.9236L132.002 25.0029L163.022 14.9265C155.466 12.4076 147.42 11.7211 139.547 12.9236Z" fill="#FCB614"/>
</g>
<defs>
<clipPath id="clip0_91_8529">
<rect width="162.045" height="50" fill="white" transform="translate(0.977661)"/>
</clipPath>
</defs>
</svg>
