<svg width="64" height="50" viewBox="0 0 64 50" fill="none" xmlns="http://www.w3.org/2000/svg">
<g clip-path="url(#clip0_1825_14076)">
<path d="M24.4529 12.9245C24.7115 12.9592 24.9662 13.0056 25.2248 13.048C26.3934 10.8954 27.7549 8.85328 29.2924 6.94659C25.4107 3.92146 21.0464 1.57297 16.3833 0L24.4529 12.9245ZM45.2927 29.3146L32.0015 25.0039L47.6198 50C48.5384 43.0182 47.7396 35.9177 45.2927 29.3146Z" fill="#158285"/>
<path d="M23.4997 19.6859C29.2577 10.4701 36.7638 3.74349 47.6198 0.00390625L32.0016 25.0039L16.3795 50C14.9863 38.5961 17.7418 28.9017 23.4997 19.6859Z" fill="#F7941D"/>
<path d="M0.977539 14.9198L17.5915 20.3227C19.3543 19.348 21.1653 18.4632 23.0175 17.6714C23.2568 17.0848 23.5141 16.4982 23.7894 15.9116C24.2409 14.9275 24.7233 13.982 25.2327 13.048C17.1162 11.6799 8.78805 12.3226 0.977539 14.9198ZM46.4082 20.3227L32.0018 25.0039L63.0221 35.0842C58.6589 28.9801 52.9815 23.933 46.4082 20.315V20.3227Z" fill="#2BB574"/>
<path d="M0.977539 35.0765L18.7068 29.3147C19.3524 27.5798 20.0958 25.8828 20.9335 24.2321C21.4475 21.9918 22.1445 19.7976 23.0175 17.6714C14.2301 21.4341 6.87056 26.9335 0.977539 35.0765ZM39.5465 12.9246L32.0018 25.0039L63.0221 14.9275C55.4663 12.4086 47.4199 11.7221 39.5465 12.9246Z" fill="#FCB614"/>
</g>
<defs>
<clipPath id="clip0_1825_14076">
<rect width="62.0446" height="50" fill="white" transform="translate(0.977539)"/>
</clipPath>
</defs>
</svg>
